<svg xmlns="http://www.w3.org/2000/svg" xmlns:xlink="http://www.w3.org/1999/xlink" width="500" zoomAndPan="magnify" viewBox="0 0 375 374.999991" height="500" preserveAspectRatio="xMidYMid meet" version="1.0"><defs><g/><clipPath id="a3ab7a386b"><path d="M 20.160156 166.308594 L 354.839844 166.308594 L 354.839844 206.523438 L 20.160156 206.523438 Z M 20.160156 166.308594 " clip-rule="nonzero"/></clipPath></defs><g fill="#004aad" fill-opacity="1"><g transform="translate(13.168493, 257.19815)"><g><path d="M 6.964844 -40.386719 C 22.28125 -8.007812 43.34375 3.480469 71.195312 3.480469 C 94 3.480469 113.496094 -8.179688 113.496094 -32.898438 C 113.496094 -56.398438 97.132812 -67.714844 64.234375 -89.648438 C 39.167969 -106.1875 31.507812 -111.582031 31.507812 -122.546875 C 31.507812 -131.949219 39.6875 -139.085938 53.441406 -139.085938 C 76.070312 -139.085938 84.949219 -119.761719 89.996094 -100.617188 L 110.539062 -109.144531 C 94.871094 -132.992188 77.289062 -142.742188 55.183594 -142.742188 C 33.074219 -142.742188 15.144531 -132.296875 15.144531 -111.929688 C 15.144531 -93.128906 26.632812 -83.554688 55.007812 -64.234375 C 83.035156 -44.5625 97.308594 -35.335938 97.308594 -21.933594 C 97.308594 -8.179688 87.90625 -0.175781 73.285156 -0.175781 C 49.960938 -0.175781 33.25 -22.28125 27.679688 -51.875 Z M 6.964844 -40.386719 "/></g></g></g><g fill="#004aad" fill-opacity="1"><g transform="translate(124.921164, 257.19815)"><g><path d="M 12.183594 -139.261719 C 13.75 -126.03125 14.273438 -118.195312 14.273438 -102.007812 L 14.273438 -37.253906 C 14.273438 -21.0625 13.75 -13.230469 12.183594 0 L 104.269531 0 L 110.710938 -13.578125 C 87.386719 -4.875 77.113281 -3.65625 58.835938 -3.65625 L 43.519531 -3.65625 L 43.519531 -71.542969 L 52.746094 -71.542969 C 61.96875 -71.542969 71.371094 -71.542969 87.558594 -69.804688 L 87.558594 -76.941406 C 71.371094 -75.199219 61.96875 -75.199219 52.746094 -75.199219 L 43.519531 -75.199219 L 43.519531 -135.605469 L 58.488281 -135.605469 C 68.238281 -135.605469 82.335938 -134.039062 96.785156 -125.160156 L 106.882812 -139.261719 Z M 12.183594 -139.261719 "/></g></g></g><g fill="#004aad" fill-opacity="1"><g transform="translate(232.148017, 257.19815)"><g><path d="M 112.800781 -20.714844 L 80.074219 -139.261719 L 45.085938 -139.261719 C 46.652344 -134.210938 46.304688 -131.773438 45.085938 -126.902344 L 15.492188 -18.800781 C 13.75 -12.359375 12.882812 -8.53125 8.703125 0 L 15.492188 0 C 16.015625 -8.179688 17.582031 -12.359375 19.324219 -18.972656 L 27.679688 -49.785156 L 73.632812 -49.785156 L 81.640625 -20.714844 C 83.902344 -12.359375 85.121094 -8.703125 85.472656 0 L 120.980469 0 C 117.152344 -6.964844 115.238281 -11.488281 112.800781 -20.714844 Z M 28.722656 -53.441406 L 50.480469 -133.167969 L 72.589844 -53.441406 Z M 28.722656 -53.441406 "/></g></g></g><g clip-path="url(#a3ab7a386b)"><path fill="#fbfaf9" d="M 20.160156 166.308594 L 354.777344 166.308594 L 354.777344 207.8125 L 20.160156 207.8125 Z M 20.160156 166.308594 " fill-opacity="1" fill-rule="nonzero"/></g><g fill="#000000" fill-opacity="1"><g transform="translate(38.178902, 195.040607)"><g><path d="M 13.265625 -13.3125 L 4.703125 -13.3125 L 4.703125 -9.078125 L 12.375 -9.078125 L 12.375 -6.703125 L 4.703125 -6.703125 L 4.703125 -2.375 L 13.53125 -2.375 L 13.53125 0 L 2.0625 0 L 2.0625 -15.6875 L 13.265625 -15.6875 Z M 13.265625 -13.3125 "/></g></g></g><g fill="#000000" fill-opacity="1"><g transform="translate(70.792462, 195.040607)"><g/></g></g><g fill="#000000" fill-opacity="1"><g transform="translate(94.49302, 195.040607)"><g><path d="M 7.21875 -15.796875 C 9.25 -15.796875 11.078125 -15.257812 12.703125 -14.1875 L 11.609375 -11.859375 C 10.003906 -12.828125 8.472656 -13.3125 7.015625 -13.3125 C 6.222656 -13.3125 5.597656 -13.164062 5.140625 -12.875 C 4.679688 -12.59375 4.453125 -12.191406 4.453125 -11.671875 C 4.453125 -11.148438 4.660156 -10.707031 5.078125 -10.34375 C 5.503906 -9.976562 6.03125 -9.707031 6.65625 -9.53125 C 7.28125 -9.363281 7.957031 -9.144531 8.6875 -8.875 C 9.425781 -8.613281 10.109375 -8.335938 10.734375 -8.046875 C 11.359375 -7.765625 11.875 -7.3125 12.28125 -6.6875 C 12.695312 -6.070312 12.90625 -5.320312 12.90625 -4.4375 C 12.90625 -3.0625 12.351562 -1.960938 11.25 -1.140625 C 10.15625 -0.316406 8.734375 0.09375 6.984375 0.09375 C 5.796875 0.09375 4.640625 -0.128906 3.515625 -0.578125 C 2.398438 -1.023438 1.421875 -1.628906 0.578125 -2.390625 L 1.71875 -4.6875 C 2.507812 -3.945312 3.378906 -3.378906 4.328125 -2.984375 C 5.285156 -2.585938 6.1875 -2.390625 7.03125 -2.390625 C 7.957031 -2.390625 8.675781 -2.554688 9.1875 -2.890625 C 9.707031 -3.234375 9.96875 -3.703125 9.96875 -4.296875 C 9.96875 -4.835938 9.757812 -5.289062 9.34375 -5.65625 C 8.925781 -6.019531 8.398438 -6.285156 7.765625 -6.453125 C 7.140625 -6.628906 6.460938 -6.84375 5.734375 -7.09375 C 5.003906 -7.34375 4.320312 -7.601562 3.6875 -7.875 C 3.0625 -8.15625 2.539062 -8.597656 2.125 -9.203125 C 1.707031 -9.816406 1.5 -10.554688 1.5 -11.421875 C 1.5 -12.753906 2.019531 -13.816406 3.0625 -14.609375 C 4.113281 -15.398438 5.5 -15.796875 7.21875 -15.796875 Z M 7.21875 -15.796875 "/></g></g></g><g fill="#000000" fill-opacity="1"><g transform="translate(126.34517, 195.040607)"><g/></g></g><g fill="#000000" fill-opacity="1"><g transform="translate(150.045728, 195.040607)"><g><path d="M 9 -15.75 C 10.113281 -15.75 11.195312 -15.535156 12.25 -15.109375 C 13.300781 -14.679688 14.207031 -14.085938 14.96875 -13.328125 L 13.421875 -11.40625 C 12.847656 -12.019531 12.171875 -12.503906 11.390625 -12.859375 C 10.617188 -13.222656 9.835938 -13.40625 9.046875 -13.40625 C 7.484375 -13.40625 6.160156 -12.867188 5.078125 -11.796875 C 3.992188 -10.722656 3.453125 -9.421875 3.453125 -7.890625 C 3.453125 -6.335938 3.992188 -5.023438 5.078125 -3.953125 C 6.160156 -2.890625 7.484375 -2.359375 9.046875 -2.359375 C 10.679688 -2.359375 12.140625 -2.976562 13.421875 -4.21875 L 14.984375 -2.46875 C 14.179688 -1.675781 13.238281 -1.046875 12.15625 -0.578125 C 11.082031 -0.117188 10.003906 0.109375 8.921875 0.109375 C 6.617188 0.109375 4.679688 -0.65625 3.109375 -2.1875 C 1.546875 -3.71875 0.765625 -5.609375 0.765625 -7.859375 C 0.765625 -10.085938 1.554688 -11.957031 3.140625 -13.46875 C 4.734375 -14.988281 6.6875 -15.75 9 -15.75 Z M 9 -15.75 "/></g></g></g><g fill="#000000" fill-opacity="1"><g transform="translate(183.577452, 195.040607)"><g/></g></g><g fill="#000000" fill-opacity="1"><g transform="translate(207.278005, 195.040607)"><g><path d="M 12.1875 -3.546875 L 4.28125 -3.546875 L 2.78125 0 L 0.015625 0 L 6.953125 -15.6875 L 9.65625 -15.6875 L 16.515625 0 L 13.6875 0 Z M 11.1875 -5.890625 L 8.21875 -12.859375 L 5.265625 -5.890625 Z M 11.1875 -5.890625 "/></g></g></g><g fill="#000000" fill-opacity="1"><g transform="translate(241.7279, 195.040607)"><g/></g></g><g fill="#000000" fill-opacity="1"><g transform="translate(265.428453, 195.040607)"><g><path d="M 2.0625 -15.6875 L 8.3125 -15.6875 C 10.28125 -15.6875 11.804688 -15.21875 12.890625 -14.28125 C 13.972656 -13.351562 14.515625 -12.035156 14.515625 -10.328125 C 14.515625 -8.546875 13.972656 -7.164062 12.890625 -6.1875 C 11.804688 -5.21875 10.28125 -4.734375 8.3125 -4.734375 L 4.703125 -4.734375 L 4.703125 0 L 2.0625 0 Z M 4.703125 -13.3125 L 4.703125 -7.109375 L 8.203125 -7.109375 C 10.722656 -7.109375 11.984375 -8.160156 11.984375 -10.265625 C 11.984375 -12.296875 10.722656 -13.3125 8.203125 -13.3125 Z M 4.703125 -13.3125 "/></g></g></g><g fill="#000000" fill-opacity="1"><g transform="translate(298.422706, 195.040607)"><g/></g></g><g fill="#000000" fill-opacity="1"><g transform="translate(322.123258, 195.040607)"><g><path d="M 13.265625 -13.3125 L 4.703125 -13.3125 L 4.703125 -9.078125 L 12.375 -9.078125 L 12.375 -6.703125 L 4.703125 -6.703125 L 4.703125 -2.375 L 13.53125 -2.375 L 13.53125 0 L 2.0625 0 L 2.0625 -15.6875 L 13.265625 -15.6875 Z M 13.265625 -13.3125 "/></g></g></g></svg>