<svg xmlns="http://www.w3.org/2000/svg" xmlns:xlink="http://www.w3.org/1999/xlink" width="500" zoomAndPan="magnify" viewBox="0 0 375 374.999991" height="500" preserveAspectRatio="xMidYMid meet" version="1.0"><defs><g/><clipPath id="edd93883bb"><path d="M 20.160156 166.308594 L 354.839844 166.308594 L 354.839844 206.523438 L 20.160156 206.523438 Z M 20.160156 166.308594 " clip-rule="nonzero"/></clipPath></defs><g fill="#ffffff" fill-opacity="1"><g transform="translate(15.163793, 254.888165)"><g><path d="M 6.882812 -39.921875 C 22.027344 -7.914062 42.847656 3.441406 70.378906 3.441406 C 92.921875 3.441406 112.195312 -8.085938 112.195312 -32.523438 C 112.195312 -55.753906 96.019531 -66.9375 63.496094 -88.621094 C 38.71875 -104.96875 31.144531 -110.304688 31.144531 -121.144531 C 31.144531 -130.4375 39.234375 -137.492188 52.828125 -137.492188 C 75.199219 -137.492188 83.976562 -118.390625 88.964844 -99.460938 L 109.269531 -107.894531 C 93.785156 -131.46875 76.402344 -141.105469 54.550781 -141.105469 C 32.695312 -141.105469 14.972656 -130.78125 14.972656 -110.648438 C 14.972656 -92.0625 26.328125 -82.597656 54.378906 -63.496094 C 82.082031 -44.050781 96.191406 -34.933594 96.191406 -21.683594 C 96.191406 -8.085938 86.902344 -0.171875 72.445312 -0.171875 C 49.386719 -0.171875 32.867188 -22.027344 27.359375 -51.28125 Z M 6.882812 -39.921875 "/></g></g></g><g fill="#ffffff" fill-opacity="1"><g transform="translate(125.637861, 254.888165)"><g><path d="M 12.046875 -137.664062 C 13.59375 -124.585938 14.109375 -116.84375 14.109375 -100.839844 L 14.109375 -36.824219 C 14.109375 -20.820312 13.59375 -13.078125 12.046875 0 L 103.074219 0 L 109.441406 -13.421875 C 86.382812 -4.816406 76.230469 -3.613281 58.164062 -3.613281 L 43.019531 -3.613281 L 43.019531 -70.726562 L 52.140625 -70.726562 C 61.261719 -70.726562 70.554688 -70.726562 86.554688 -69.003906 L 86.554688 -76.058594 C 70.554688 -74.339844 61.261719 -74.339844 52.140625 -74.339844 L 43.019531 -74.339844 L 43.019531 -134.050781 L 57.820312 -134.050781 C 67.457031 -134.050781 81.394531 -132.5 95.675781 -123.726562 L 105.65625 -137.664062 Z M 12.046875 -137.664062 "/></g></g></g><g fill="#ffffff" fill-opacity="1"><g transform="translate(231.637885, 254.888165)"><g><path d="M 111.507812 -20.476562 L 79.15625 -137.664062 L 44.570312 -137.664062 C 46.117188 -132.671875 45.773438 -130.265625 44.570312 -125.445312 L 15.316406 -18.585938 C 13.59375 -12.21875 12.734375 -8.433594 8.605469 0 L 15.316406 0 C 15.832031 -8.085938 17.378906 -12.21875 19.101562 -18.757812 L 27.359375 -49.214844 L 72.789062 -49.214844 L 80.707031 -20.476562 C 82.941406 -12.21875 84.148438 -8.605469 84.492188 0 L 119.59375 0 C 115.808594 -6.882812 113.917969 -11.355469 111.507812 -20.476562 Z M 28.394531 -52.828125 L 49.902344 -131.640625 L 71.757812 -52.828125 Z M 28.394531 -52.828125 "/></g></g></g><g clip-path="url(#edd93883bb)"><path fill="#fbfaf9" d="M 20.160156 166.308594 L 354.777344 166.308594 L 354.777344 207.8125 L 20.160156 207.8125 Z M 20.160156 166.308594 " fill-opacity="1" fill-rule="nonzero"/></g><path stroke-linecap="butt" transform="matrix(0.75, 0, 0, 0.75, 29.520301, 170.290609)" fill="none" stroke-linejoin="miter" d="M 22.54585 15.523981 L 11.004183 15.523981 L 11.004183 19.867731 L 21.426058 19.867731 L 21.426058 24.232315 L 11.004183 24.232315 L 11.004183 28.633357 L 22.8896 28.633357 L 22.8896 32.99794 L 5.452099 32.99794 L 5.452099 11.159397 L 22.54585 11.159397 Z M 92.03023 10.909397 C 95.295855 10.909397 98.165647 11.721897 100.634397 13.346897 L 98.551063 17.680231 C 97.400022 17.018773 96.170855 16.471898 94.863563 16.044814 C 93.551063 15.617731 92.452105 15.404189 91.556271 15.404189 C 89.957313 15.404189 89.155229 15.935439 89.155229 16.997939 C 89.155229 17.680231 89.551063 18.232314 90.337521 18.648981 C 91.129188 19.065648 92.09273 19.425023 93.222938 19.732315 C 94.358355 20.02919 95.488563 20.393773 96.62398 20.820856 C 97.759397 21.242731 98.722938 21.930231 99.509397 22.893773 C 100.301063 23.846898 100.696897 25.055232 100.696897 26.508357 C 100.696897 28.612523 99.87398 30.253149 98.228147 31.430232 C 96.587522 32.602107 94.49898 33.190649 91.962521 33.190649 C 90.155229 33.190649 88.363563 32.878149 86.597938 32.253149 C 84.832312 31.628149 83.290646 30.773982 81.983354 29.695857 L 84.129187 25.419815 C 85.233354 26.378148 86.530229 27.159398 88.030229 27.773982 C 89.530229 28.388565 90.863563 28.695857 92.03023 28.695857 C 92.920855 28.695857 93.618771 28.534398 94.118771 28.21669 C 94.613563 27.893773 94.863563 27.414607 94.863563 26.789607 C 94.863563 26.18544 94.577105 25.680232 94.004188 25.273982 C 93.431271 24.867732 92.722938 24.570857 91.868771 24.378148 C 91.014604 24.180231 90.087521 23.914606 89.087521 23.576065 C 88.092729 23.242731 87.170854 22.878148 86.316688 22.487523 C 85.462521 22.09169 84.748979 21.461481 84.176062 20.596898 C 83.608354 19.737523 83.321896 18.701064 83.321896 17.492731 C 83.321896 15.497939 84.118771 13.898981 85.707312 12.706272 C 87.295854 11.508356 89.405229 10.909397 92.03023 10.909397 Z M 171.113568 10.971897 C 172.738568 10.971897 174.332318 11.305231 175.905235 11.966689 C 177.472943 12.633356 178.806277 13.529189 179.910444 14.659398 L 176.696902 18.456273 C 175.988568 17.586481 175.13961 16.893773 174.150027 16.388564 C 173.165652 15.878148 172.186485 15.622939 171.20211 15.622939 C 169.48336 15.622939 168.035443 16.232314 166.868776 17.451064 C 165.707318 18.664606 165.123984 20.169815 165.123984 21.956273 C 165.123984 23.784398 165.707318 25.31044 166.868776 26.539607 C 168.035443 27.768773 169.48336 28.383357 171.20211 28.383357 C 172.123985 28.383357 173.07711 28.15419 174.061485 27.695857 C 175.051068 27.242732 175.931277 26.617732 176.696902 25.826065 L 179.941694 29.253148 C 178.759402 30.461482 177.35836 31.430232 175.743777 32.164607 C 174.134402 32.888565 172.530235 33.253149 170.931276 33.253149 C 167.63961 33.253149 164.900026 32.180232 162.717734 30.034399 C 160.535442 27.893773 159.441692 25.221898 159.441692 22.013565 C 159.441692 18.878148 160.556276 16.253148 162.780234 14.138564 C 165.009401 12.029189 167.785443 10.971897 171.113568 10.971897 Z M 254.129199 28.977107 L 244.587531 28.977107 L 242.993781 32.99794 L 237.290656 32.99794 L 246.712531 11.159397 L 252.415657 11.159397 L 261.618782 32.99794 L 255.691699 32.99794 Z M 252.509407 24.763565 L 249.394823 16.685439 L 246.207323 24.763565 Z M 320.806286 11.159397 L 330.316704 11.159397 C 333.10837 11.159397 335.269829 11.820856 336.806287 13.143772 C 338.347954 14.461481 339.118787 16.336481 339.118787 18.768773 C 339.118787 21.331273 338.347954 23.320856 336.806287 24.737523 C 335.269829 26.148982 333.10837 26.852107 330.316704 26.852107 L 326.35837 26.852107 L 326.35837 32.99794 L 320.806286 32.99794 Z M 326.35837 15.523981 L 326.35837 22.487523 L 330.035454 22.487523 C 331.26462 22.487523 332.212537 22.18544 332.879204 21.581273 C 333.540662 20.977106 333.873995 20.102106 333.873995 18.961481 C 333.873995 17.841689 333.540662 16.987523 332.879204 16.404189 C 332.212537 15.815648 331.26462 15.523981 330.035454 15.523981 Z M 416.269834 15.523981 L 404.728167 15.523981 L 404.728167 19.867731 L 415.150042 19.867731 L 415.150042 24.232315 L 404.728167 24.232315 L 404.728167 28.633357 L 416.608376 28.633357 L 416.608376 32.99794 L 399.176083 32.99794 L 399.176083 11.159397 L 416.269834 11.159397 Z M 416.269834 15.523981 " stroke="#6f534b" stroke-width="2.340345" stroke-opacity="1" stroke-miterlimit="4"/><g fill="#004aad" fill-opacity="1"><g transform="translate(31.96952, 195.040607)"><g><path d="M 14.46875 -13.109375 L 5.8125 -13.109375 L 5.8125 -9.859375 L 13.625 -9.859375 L 13.625 -6.578125 L 5.8125 -6.578125 L 5.8125 -3.28125 L 14.71875 -3.28125 L 14.71875 0 L 1.640625 0 L 1.640625 -16.390625 L 14.46875 -16.390625 Z M 14.46875 -13.109375 "/></g></g></g><g fill="#004aad" fill-opacity="1"><g transform="translate(66.457578, 195.040607)"><g/></g></g><g fill="#004aad" fill-opacity="1"><g transform="translate(90.606965, 195.040607)"><g><path d="M 7.9375 -16.578125 C 10.382812 -16.578125 12.535156 -15.96875 14.390625 -14.75 L 12.828125 -11.5 C 11.972656 -11.988281 11.050781 -12.394531 10.0625 -12.71875 C 9.082031 -13.039062 8.253906 -13.203125 7.578125 -13.203125 C 6.378906 -13.203125 5.78125 -12.800781 5.78125 -12 C 5.78125 -11.488281 6.078125 -11.078125 6.671875 -10.765625 C 7.265625 -10.453125 7.984375 -10.179688 8.828125 -9.953125 C 9.679688 -9.734375 10.53125 -9.460938 11.375 -9.140625 C 12.226562 -8.816406 12.953125 -8.296875 13.546875 -7.578125 C 14.140625 -6.859375 14.4375 -5.957031 14.4375 -4.875 C 14.4375 -3.289062 13.820312 -2.054688 12.59375 -1.171875 C 11.363281 -0.296875 9.796875 0.140625 7.890625 0.140625 C 6.535156 0.140625 5.191406 -0.09375 3.859375 -0.5625 C 2.535156 -1.03125 1.378906 -1.671875 0.390625 -2.484375 L 2.015625 -5.6875 C 2.835938 -4.96875 3.8125 -4.378906 4.9375 -3.921875 C 6.0625 -3.460938 7.0625 -3.234375 7.9375 -3.234375 C 8.601562 -3.234375 9.125 -3.351562 9.5 -3.59375 C 9.875 -3.832031 10.0625 -4.1875 10.0625 -4.65625 C 10.0625 -5.113281 9.847656 -5.492188 9.421875 -5.796875 C 8.992188 -6.097656 8.457031 -6.320312 7.8125 -6.46875 C 7.175781 -6.613281 6.484375 -6.8125 5.734375 -7.0625 C 4.984375 -7.3125 4.285156 -7.582031 3.640625 -7.875 C 3.003906 -8.175781 2.472656 -8.648438 2.046875 -9.296875 C 1.617188 -9.953125 1.40625 -10.734375 1.40625 -11.640625 C 1.40625 -13.128906 2 -14.320312 3.1875 -15.21875 C 4.382812 -16.125 5.96875 -16.578125 7.9375 -16.578125 Z M 7.9375 -16.578125 "/></g></g></g><g fill="#004aad" fill-opacity="1"><g transform="translate(124.393303, 195.040607)"><g/></g></g><g fill="#004aad" fill-opacity="1"><g transform="translate(148.542692, 195.040607)"><g><path d="M 9.3125 -16.53125 C 10.53125 -16.53125 11.726562 -16.28125 12.90625 -15.78125 C 14.082031 -15.28125 15.085938 -14.609375 15.921875 -13.765625 L 13.5 -10.90625 C 12.96875 -11.5625 12.332031 -12.078125 11.59375 -12.453125 C 10.851562 -12.835938 10.117188 -13.03125 9.390625 -13.03125 C 8.085938 -13.03125 7 -12.570312 6.125 -11.65625 C 5.257812 -10.75 4.828125 -9.625 4.828125 -8.28125 C 4.828125 -6.90625 5.257812 -5.757812 6.125 -4.84375 C 7 -3.925781 8.085938 -3.46875 9.390625 -3.46875 C 10.078125 -3.46875 10.789062 -3.640625 11.53125 -3.984375 C 12.269531 -4.328125 12.925781 -4.796875 13.5 -5.390625 L 15.9375 -2.8125 C 15.050781 -1.90625 14.003906 -1.175781 12.796875 -0.625 C 11.585938 -0.0820312 10.378906 0.1875 9.171875 0.1875 C 6.710938 0.1875 4.660156 -0.613281 3.015625 -2.21875 C 1.378906 -3.832031 0.5625 -5.835938 0.5625 -8.234375 C 0.5625 -10.585938 1.394531 -12.554688 3.0625 -14.140625 C 4.738281 -15.734375 6.820312 -16.53125 9.3125 -16.53125 Z M 9.3125 -16.53125 "/></g></g></g><g fill="#004aad" fill-opacity="1"><g transform="translate(183.451782, 195.040607)"><g/></g></g><g fill="#004aad" fill-opacity="1"><g transform="translate(207.601171, 195.040607)"><g><path d="M 12.515625 -3.015625 L 5.359375 -3.015625 L 4.171875 0 L -0.109375 0 L 6.953125 -16.390625 L 11.234375 -16.390625 L 18.140625 0 L 13.6875 0 Z M 11.3125 -6.171875 L 8.96875 -12.234375 L 6.578125 -6.171875 Z M 11.3125 -6.171875 "/></g></g></g><g fill="#004aad" fill-opacity="1"><g transform="translate(244.334724, 195.040607)"><g/></g></g><g fill="#004aad" fill-opacity="1"><g transform="translate(268.484113, 195.040607)"><g><path d="M 1.640625 -16.390625 L 8.78125 -16.390625 C 10.863281 -16.390625 12.484375 -15.890625 13.640625 -14.890625 C 14.796875 -13.898438 15.375 -12.492188 15.375 -10.671875 C 15.375 -8.753906 14.796875 -7.265625 13.640625 -6.203125 C 12.484375 -5.140625 10.863281 -4.609375 8.78125 -4.609375 L 5.8125 -4.609375 L 5.8125 0 L 1.640625 0 Z M 5.8125 -13.109375 L 5.8125 -7.890625 L 8.5625 -7.890625 C 9.488281 -7.890625 10.203125 -8.113281 10.703125 -8.5625 C 11.203125 -9.019531 11.453125 -9.675781 11.453125 -10.53125 C 11.453125 -11.375 11.203125 -12.015625 10.703125 -12.453125 C 10.203125 -12.890625 9.488281 -13.109375 8.5625 -13.109375 Z M 5.8125 -13.109375 "/></g></g></g><g fill="#004aad" fill-opacity="1"><g transform="translate(303.112514, 195.040607)"><g/></g></g><g fill="#004aad" fill-opacity="1"><g transform="translate(327.261903, 195.040607)"><g><path d="M 14.46875 -13.109375 L 5.8125 -13.109375 L 5.8125 -9.859375 L 13.625 -9.859375 L 13.625 -6.578125 L 5.8125 -6.578125 L 5.8125 -3.28125 L 14.71875 -3.28125 L 14.71875 0 L 1.640625 0 L 1.640625 -16.390625 L 14.46875 -16.390625 Z M 14.46875 -13.109375 "/></g></g></g></svg>